Patient4_TMGait_0pt5_01_right_05_GRF.mot
version=1
nRows=65
nColumns=19
inDegrees=no
endheader
time	F1x	F1y	F1z	M1x	M1y	M1z	F2x	F2y	F2z	M2x	M2y	M2z	EC1x	EC1y	EC1z	EC2x	EC2y	EC2z
5.97	-12.6599	783.4295	70.5107	-301.9809	-56.8229	588.0928	8.241	-0.25544	9.1698	-2.9536	-12.735	0.90453	-0.0592	0.0182	-0.0073	-0.0462	0.0165	0.9585
5.9834	-11.1787	770.5814	69.1005	-296.6888	-54.6993	577.3267	5.197	0.7884	6.3695	-1.68	-8.6392	1.4819	-0.0592	0.0182	-0.0073	-0.0462	0.0165	0.9585
5.9969	-9.1451	755.4078	67.2558	-290.6205	-52.0048	563.8339	2.6595	1.6694	3.9033	-0.57457	-5.1026	1.959	-0.0592	0.0182	-0.0073	-0.0462	0.0165	0.9585
6.0103	-6.5695	739.3228	65.0258	-284.3498	-48.8161	548.6349	0.75658	2.3494	1.9697	0.28962	-2.3654	2.3255	-0.0592	0.0182	-0.0073	-0.0462	0.0165	0.9585
6.0237	-3.4863	723.9766	62.5294	-278.5164	-45.2584	533.0151	-0.5484	2.8483	0.59608	0.91004	-0.43457	2.6063	-0.0592	0.0182	-0.0073	-0.0462	0.0165	0.9585
6.0371	0.078939	710.8771	59.9125	-273.6892	-41.4604	518.1884	-1.3464	3.1811	-0.27683	1.3128	0.7914	2.7873	-0.0592	0.0182	-0.0073	-0.0462	0.0165	0.9585
6.0506	4.0737	701.1925	57.3372	-270.2927	-37.563	505.1449	-1.7809	3.369	-0.75526	1.5381	1.4707	2.8805	-0.0592	0.0182	-0.0073	-0.0462	0.0165	0.9585
6.064	8.4629	695.6598	54.9422	-268.5811	-33.6804	494.5438	-1.9742	3.3994	-0.95373	1.618	1.7663	2.8616	-0.0592	0.0182	-0.0073	-0.0462	0.0165	0.9585
6.0774	13.1786	694.5955	52.8356	-268.6417	-29.9123	486.7494	-2.039	3.2437	-0.97461	1.5729	1.8252	2.6935	-0.0592	0.0182	-0.0073	-0.0462	0.0165	0.9585
6.0909	18.1536	697.8923	51.0871	-270.398	-26.3272	481.7981	-2.0656	2.8438	-0.89593	1.4046	1.7616	2.3218	-0.0592	0.0182	-0.0073	-0.0462	0.0165	0.9585
6.1043	23.3119	705.0778	49.7383	-273.6369	-22.9755	479.4593	-2.1031	2.1159	-0.77323	1.1	1.6523	1.6707	-0.0592	0.0182	-0.0073	-0.0462	0.0165	0.9585
6.1177	28.556	715.3675	48.8023	-278.0298	-19.8945	479.2886	-2.1796	0.97401	-0.64108	0.63735	1.543	0.67803	-0.0592	0.0182	-0.0073	-0.0462	0.0165	0.9585
6.1311	33.8007	727.737	48.2815	-283.161	-17.1154	480.6633	-2.2603	-0.6644	-0.51243	-0.0078032	1.4377	-0.72815	-0.0592	0.0182	-0.0073	-0.0462	0.0165	0.9585
6.1446	38.9327	741.011	48.1639	-288.5606	-14.6683	482.8769	-2.2878	-2.8169	-0.39191	-0.84084	1.3192	-2.5612	-0.0592	0.0182	-0.0073	-0.0462	0.0165	0.9585
6.158	43.8558	753.9134	48.4264	-293.7261	-12.579	485.1426	-2.1567	-5.3943	-0.27936	-1.828	1.1481	-4.7568	-0.0592	0.0182	-0.0073	-0.0462	0.0165	0.9585
6.1714	48.4616	765.1696	49.0042	-298.1585	-10.8443	486.6965	-1.7193	-8.1056	-0.17615	-2.8618	0.87588	-7.0703	-0.0592	0.0182	-0.0073	-0.0462	0.0165	0.9585
6.1849	52.6454	773.5549	49.8099	-301.379	-9.4533	486.8223	-0.79342	-10.3582	-0.089845	-3.7232	0.44851	-8.996	-0.0592	0.0182	-0.0073	-0.0462	0.0165	0.9585
6.1983	56.2828	777.9554	50.746	-302.9506	-8.3945	484.8948	0.83258	-11.1764	-0.03955	-4.0461	-0.19271	-9.7077	-0.0592	0.0182	-0.0073	-0.0462	0.0165	0.9585
6.2117	59.2379	777.5183	51.7346	-302.5331	-7.6758	480.4712	3.348	-9.1093	-0.061682	-3.2841	-1.0916	-7.9531	-0.0592	0.0182	-0.0073	-0.0462	0.0165	0.9585
6.2251	61.4016	771.7561	52.7009	-299.93	-7.2941	473.3298	6.8747	-2.2335	-0.21456	-0.70911	-2.2478	-2.0729	-0.0592	0.0182	-0.0073	-0.0462	0.0165	0.9585
6.2386	62.6688	760.5297	53.5886	-295.0803	-7.2535	463.4784	11.3501	11.7693	-0.57051	4.557	-3.5815	9.9344	-0.0592	0.0182	-0.0073	-0.0462	0.0165	0.9585
6.252	62.9723	743.8682	54.3232	-287.9999	-7.5354	451.0159	16.4124	35.3424	-1.2157	13.441	-4.8866	30.1726	-0.0592	0.0182	-0.0073	-0.0462	0.0165	0.9585
6.2654	62.2438	721.7868	54.7857	-278.7154	-8.0945	436.0235	21.2316	70.5281	-2.2268	26.7202	-5.7953	60.4023	-0.0592	0.0182	-0.0073	-0.0462	0.0165	0.9585
6.2789	60.4414	694.2081	54.7774	-267.2394	-8.8292	418.4944	24.3577	118.1159	-3.6564	44.7016	-5.7366	101.3146	-0.0592	0.0182	-0.0073	-0.0462	0.0165	0.9585
6.2923	57.5687	661.039	54.0488	-253.5999	-9.5911	398.3522	23.8736	176.618	-5.4696	66.8345	-4.0466	151.6381	-0.0592	0.0182	-0.0073	-0.0462	0.0165	0.9585
6.3057	53.7055	622.4514	52.3711	-237.9388	-10.2111	375.6067	18.3636	241.6111	-7.6144	91.4526	-0.26759	207.5781	-0.0592	0.0182	-0.0073	-0.0462	0.0165	0.9585
6.3191	49.0855	579.1658	49.6227	-220.6135	-10.5233	350.4787	8.8286	306.7745	-10.4899	116.1334	5.5888	263.6266	-0.0592	0.0182	-0.0073	-0.0462	0.0165	0.9585
6.3326	44.0745	532.4975	45.8636	-202.1894	-10.4038	323.4768	-2.412	366.9682	-14.3643	138.9061	12.8966	315.0872	-0.0592	0.0182	-0.0073	-0.0462	0.0165	0.9585
6.346	39.0341	483.7534	41.3527	-183.192	-9.8374	295.1095	-13.4041	420.3452	-18.8004	159.0738	20.5377	360.1045	-0.0592	0.0182	-0.0073	-0.0462	0.0165	0.9585
6.3594	34.0964	433.617	36.4941	-163.8721	-8.9965	265.6219	-22.8232	467.0105	-23.3563	176.7032	27.6464	398.6741	-0.0592	0.0182	-0.0073	-0.0462	0.0165	0.9585
6.3729	29.1713	382.3919	31.6394	-144.3081	-8.1085	235.1592	-30.1212	507.7275	-27.529	192.1197	33.5995	431.4675	-0.0592	0.0182	-0.0073	-0.0462	0.0165	0.9585
6.3863	24.0558	330.4951	27.0337	-124.6087	-7.3899	203.9989	-35.2365	543.5358	-31.0597	205.7369	38.1774	459.445	-0.0592	0.0182	-0.0073	-0.0462	0.0165	0.9585
6.3997	18.5376	278.7815	22.8103	-105.0458	-6.9977	172.7299	-38.2867	575.8036	-33.8732	218.0685	41.3794	483.8342	-0.0592	0.0182	-0.0073	-0.0462	0.0165	0.9585
6.4131	12.5401	228.6061	19.0561	-86.0852	-7.0264	142.2438	-39.5493	605.9097	-36.1728	229.6077	43.4958	505.9007	-0.0592	0.0182	-0.0073	-0.0462	0.0165	0.9585
6.4266	6.2078	181.6241	15.8043	-68.3227	-7.4577	113.609	-39.5647	634.812	-38.2715	240.6687	44.9911	526.6109	-0.0592	0.0182	-0.0073	-0.0462	0.0165	0.9585
6.44	-0.017485	139.4378	13.0447	-52.3562	-8.1306	87.8209	-38.9988	662.8322	-40.521	251.3226	46.407	546.4015	-0.0592	0.0182	-0.0073	-0.0462	0.0165	0.9585
6.4534	-5.4691	103.1891	10.7146	-38.6241	-8.7613	65.5607	-38.4344	689.794	-43.1093	261.461	48.1094	565.2837	-0.0592	0.0182	-0.0073	-0.0462	0.0165	0.9585
6.4669	-9.5417	73.2848	8.7157	-27.2976	-9.0613	47.0737	-38.1761	715.1001	-45.9961	270.844	50.1747	582.8539	-0.0592	0.0182	-0.0073	-0.0462	0.0165	0.9585
6.4803	-11.8816	49.5021	6.9318	-18.3077	-8.8239	32.2382	-38.3009	737.8693	-48.9596	279.1432	52.4469	598.4503	-0.0592	0.0182	-0.0073	-0.0462	0.0165	0.9585
6.4937	-12.4206	31.2466	5.2858	-11.4339	-7.9837	20.7336	-38.7199	757.0308	-51.7281	285.9714	54.6655	611.222	-0.0592	0.0182	-0.0073	-0.0462	0.0165	0.9585
6.5071	-11.3624	17.7566	3.7509	-6.384	-6.6105	12.1392	-39.2495	771.4883	-54.1058	290.9387	56.5972	620.2675	-0.0592	0.0182	-0.0073	-0.0462	0.0165	0.9585
6.5206	-9.1818	8.2911	2.3722	-2.8695	-4.9196	6.0217	-39.6878	780.4284	-55.9819	293.7629	58.074	624.929	-0.0592	0.0182	-0.0073	-0.0462	0.0165	0.9585
6.534	-6.6392	2.2356	1.2434	-0.64453	-3.2475	2.0432	-39.8233	783.5287	-57.3094	294.3497	58.9888	624.9298	-0.0592	0.0182	-0.0073	-0.0462	0.0165	0.9585
6.5474	-4.2552	-1.1465	0.42778	0.57469	-1.8384	-0.22664	-39.4977	781.1456	-58.0456	292.8646	59.2552	620.524	-0.0592	0.0182	-0.0073	-0.0462	0.0165	0.9585
6.5609	-2.3	-2.6212	-0.10939	1.0795	-0.76907	-1.2502	-38.5771	774.3372	-58.1852	289.7371	58.8305	612.5047	-0.0592	0.0182	-0.0073	-0.0462	0.0165	0.9585
6.5743	-0.84644	-2.8709	-0.40709	1.1291	-0.049838	-1.4751	-36.9985	764.6633	-57.7779	285.5795	57.7428	602.0571	-0.0592	0.0182	-0.0073	-0.0462	0.0165	0.9585
6.5877	0.12898	-2.4257	-0.5359	0.92461	0.37639	-1.248	-34.8105	753.8553	-56.9277	281.0594	56.1017	590.5043	-0.0592	0.0182	-0.0073	-0.0462	0.0165	0.9585
6.6011	0.70361	-1.6645	-0.54536	0.60958	0.56973	-0.80652	-32.1346	743.5804	-55.7436	276.8152	54.0451	579.1132	-0.0592	0.0182	-0.0073	-0.0462	0.0165	0.9585
6.6146	0.98435	-0.83526	-0.48908	0.2748	0.60764	-0.31719	-29.1651	735.2994	-54.3366	273.3959	51.7331	569.0198	-0.0592	0.0182	-0.0073	-0.0462	0.0165	0.9585
6.628	1.0551	-0.072061	-0.39378	-0.030546	0.54103	0.14112	-26.085	730.0618	-52.8149	271.1875	49.3158	561.0419	-0.0592	0.0182	-0.0073	-0.0462	0.0165	0.9585
6.6414	0.99965	0.56102	-0.2903	-0.28385	0.42756	0.52675	-23.0652	728.3856	-51.2929	270.3674	46.9383	555.6082	-0.0592	0.0182	-0.0073	-0.0462	0.0165	0.9585
6.6549	0.87199	1.0474	-0.19257	-0.47896	0.29881	0.83794	-20.2404	730.2453	-49.8759	270.9026	44.7208	552.7515	-0.0592	0.0182	-0.0073	-0.0462	0.0165	0.9585
6.6683	0.71289	1.3883	-0.1176	-0.6184	0.18338	1.0731	-17.6855	735.1417	-48.6496	272.581	42.7502	552.1481	-0.0592	0.0182	-0.0073	-0.0462	0.0165	0.9585
6.6817	0.54326	1.5867	-0.064991	-0.70454	0.090115	1.2273	-15.4489	742.2289	-47.6715	275.0612	41.0806	553.2289	-0.0592	0.0182	-0.0073	-0.0462	0.0165	0.9585
6.6951	0.36637	1.6412	-0.037243	-0.73465	0.023197	1.2963	-13.5088	750.4223	-46.9526	277.9208	39.7057	555.228	-0.0592	0.0182	-0.0073	-0.0462	0.0165	0.9585
6.7086	0.18942	1.5322	-0.028462	-0.69887	-0.026214	1.2506	-11.8037	758.5727	-46.4678	280.7209	38.5793	557.3356	-0.0592	0.0182	-0.0073	-0.0462	0.0165	0.9585
6.722	0.013915	1.2292	-0.033352	-0.58111	-0.067111	1.0476	-10.2362	765.6006	-46.1523	283.0597	37.6135	558.7797	-0.0592	0.0182	-0.0073	-0.0462	0.0165	0.9585
6.7354	-0.14959	0.67798	-0.048358	-0.3587	-0.098965	0.62118	-8.7207	770.6097	-45.944	284.61	36.732	558.9072	-0.0592	0.0182	-0.0073	-0.0462	0.0165	0.9585
6.7489	-0.2804	-0.18349	-0.064035	-0.0071077	-0.12024	-0.0884	-7.1978	773.0044	-45.782	285.1559	35.8664	557.2806	-0.0592	0.0182	-0.0073	-0.0462	0.0165	0.9585
6.7623	-0.34171	-1.4074	-0.082688	0.48913	-0.11239	-1.1253	-5.6241	772.5316	-45.6545	284.607	34.9885	553.6936	-0.0592	0.0182	-0.0073	-0.0462	0.0165	0.9585
6.7757	-0.27318	-2.9946	-0.10075	1.1232	-0.055228	-2.4928	-4.0208	769.278	-45.6062	282.9947	34.1264	548.2115	-0.0592	0.0182	-0.0073	-0.0462	0.0165	0.9585
6.7891	0.003052	-4.8404	-0.13255	1.8507	0.094104	-4.1074	-2.4007	763.6649	-45.7253	280.4721	33.3399	541.1235	-0.0592	0.0182	-0.0073	-0.0462	0.0165	0.9585
6.8026	0.59178	-6.6876	-0.1873	2.5709	0.38251	-5.7471	-0.76348	756.4377	-46.0828	277.3119	32.6709	532.9329	-0.0592	0.0182	-0.0073	-0.0462	0.0165	0.9585
6.816	1.6063	-8.0491	-0.28709	3.0976	0.8706	-6.9822	0.91945	748.5325	-46.7186	273.8585	32.1339	524.2668	-0.0592	0.0182	-0.0073	-0.0462	0.0165	0.9585
6.8294	3.1375	-8.1497	-0.45104	3.1324	1.6068	-7.1325	2.7233	740.8868	-47.6241	270.46	31.6982	515.7338	-0.0592	0.0182	-0.0073	-0.0462	0.0165	0.9585
